{
	"asset":{
		"generator":"Khronos glTF Blender I/O v3.5.30",
		"version":"2.0"
	},
	"extensionsUsed":[
		"KHR_materials_specular",
		"KHR_materials_ior"
	],
	"scene":0,
	"scenes":[
		{
			"name":"Scene",
			"nodes":[
				0
			]
		}
	],
	"nodes":[
		{
			"mesh":0,
			"name":"Table_16",
			"scale":[
				0.7470003366470337,
				0.7470003366470337,
				0.7470003366470337
			],
			"translation":[
				5.06777286529541,
				0.728008508682251,
				-3.0412182807922363
			]
		}
	],
	"materials":[
		{
			"doubleSided":true,
			"extensions":{
				"KHR_materials_specular":{
					"specularColorFactor":[
						0,
						0,
						0
					]
				},
				"KHR_materials_ior":{
					"ior":1.4500000476837158
				}
			},
			"name":"Wood_12",
			"pbrMetallicRoughness":{
				"metallicFactor":0
			}
		}
	],
	"meshes":[
		{
			"name":"Table_16",
			"primitives":[
				{
					"attributes":{
						"POSITION":0,
						"TEXCOORD_0":1,
						"NORMAL":2
					},
					"indices":3,
					"material":0
				}
			]
		}
	],
	"accessors":[
		{
			"bufferView":0,
			"componentType":5126,
			"count":207,
			"max":[
				1.1251068115234375,
				0.04536779224872589,
				1.0735644102096558
			],
			"min":[
				-1.1251068115234375,
				-1.1262067556381226,
				-1.1424634456634521
			],
			"type":"VEC3"
		},
		{
			"bufferView":1,
			"componentType":5126,
			"count":207,
			"type":"VEC2"
		},
		{
			"bufferView":2,
			"componentType":5126,
			"count":207,
			"type":"VEC3"
		},
		{
			"bufferView":3,
			"componentType":5123,
			"count":441,
			"type":"SCALAR"
		}
	],
	"bufferViews":[
		{
			"buffer":0,
			"byteLength":2484,
			"byteOffset":0,
			"target":34962
		},
		{
			"buffer":0,
			"byteLength":1656,
			"byteOffset":2484,
			"target":34962
		},
		{
			"buffer":0,
			"byteLength":2484,
			"byteOffset":4140,
			"target":34962
		},
		{
			"buffer":0,
			"byteLength":882,
			"byteOffset":6624,
			"target":34963
		}
	],
	"buffers":[
		{
			"byteLength":7508,
			"uri":"data:application/octet-stream;base64,"
		}
	]
}
